<?xml version="1.0" encoding="UTF-8" standalone="no"?>
<!DOCTYPE svg PUBLIC "-//W3C//DTD SVG 1.1//EN" "http://www.w3.org/Graphics/SVG/1.1/DTD/svg11.dtd">
<svg width="100%" height="100%" viewBox="0 0 1080 1080" version="1.1" xmlns="http://www.w3.org/2000/svg" xmlns:xlink="http://www.w3.org/1999/xlink" xml:space="preserve" xmlns:serif="http://www.serif.com/" style="fill-rule:evenodd;clip-rule:evenodd;stroke-linejoin:round;stroke-miterlimit:2;">
    <g transform="matrix(1.48351,0,0,1.48713,-257.746,-42.932)">
        <path d="M429.109,230.338C443.953,230.598 457.755,233.333 470.515,238.541C483.015,244.01 495.125,252.343 506.843,263.541C517.52,273.958 525.723,286.328 531.453,300.65C536.921,314.192 539.656,328.645 539.656,344.01L539.656,392.838L659.187,392.838L596.687,330.338L631.843,295.182L745.515,408.854L745.515,440.885L631.843,554.557L596.687,519.4L659.187,456.9L539.656,456.9L539.656,540.104L475.593,540.104L475.593,456.9L416.609,456.9C408.536,456.9 398.25,454.166 385.75,448.697C370.645,441.926 358.276,433.593 348.64,423.697C337.182,411.718 328.848,399.218 323.64,386.197C318.171,372.395 315.437,358.203 315.437,343.619C315.437,327.994 318.302,313.411 324.031,299.869C329.76,286.067 338.093,273.958 349.031,263.541C360.75,252.343 372.989,244.01 385.75,238.541C398.51,233.072 412.963,230.338 429.109,230.338ZM429.109,294.4C422.598,294.4 416.348,295.703 410.359,298.307C403.588,301.171 398.119,304.687 393.953,308.854C389.265,313.541 385.619,318.88 383.015,324.869C380.671,330.338 379.5,336.588 379.5,343.619C379.5,350.13 380.802,356.51 383.406,362.76C386.01,368.749 389.526,373.958 393.953,378.385C398.901,383.072 404.369,386.588 410.359,388.932C417.13,391.536 424.421,392.838 432.234,392.838L475.593,392.838L475.593,344.01C475.593,337.239 474.421,330.989 472.078,325.26C468.953,318.229 465.437,312.76 461.531,308.854C456.843,304.426 451.635,300.911 445.906,298.307C439.135,295.703 433.536,294.4 429.109,294.4Z" style="fill:rgb(255,50,117);fill-rule:nonzero;"/>
    </g>
</svg>
