<?xml version="1.0" encoding="UTF-8" standalone="no"?>
<!DOCTYPE svg PUBLIC "-//W3C//DTD SVG 1.1//EN" "http://www.w3.org/Graphics/SVG/1.1/DTD/svg11.dtd">
<svg width="100%" height="100%" viewBox="0 0 1080 1080" version="1.1" xmlns="http://www.w3.org/2000/svg" xmlns:xlink="http://www.w3.org/1999/xlink" xml:space="preserve" xmlns:serif="http://www.serif.com/" style="fill-rule:evenodd;clip-rule:evenodd;stroke-linejoin:round;stroke-miterlimit:2;">
    <g>
        <g transform="matrix(1,0,0,1.60866,-53.05,-316.688)">
            <path d="M137.249,241.09L137.249,267.342C137.249,274.586 127.788,280.468 116.134,280.468L67.424,280.468C55.77,280.468 46.309,274.586 46.309,267.342L46.309,241.09C46.309,233.846 55.77,227.964 67.424,227.964L116.134,227.964C127.788,227.964 137.249,233.846 137.249,241.09Z" style="fill:rgb(223,252,255);"/>
        </g>
        <g transform="matrix(1,0,0,1.60866,-53.05,577.754)">
            <path d="M137.249,241.09L137.249,267.342C137.249,274.586 127.788,280.468 116.134,280.468L67.424,280.468C55.77,280.468 46.309,274.586 46.309,267.342L46.309,241.09C46.309,233.846 55.77,227.964 67.424,227.964L116.134,227.964C127.788,227.964 137.249,233.846 137.249,241.09Z" style="fill:rgb(223,252,255);"/>
        </g>
        <g transform="matrix(1,0,0,1.60866,441.705,-316.688)">
            <path d="M137.249,241.09L137.249,267.342C137.249,274.586 127.788,280.468 116.134,280.468L67.424,280.468C55.77,280.468 46.309,274.586 46.309,267.342L46.309,241.09C46.309,233.846 55.77,227.964 67.424,227.964L116.134,227.964C127.788,227.964 137.249,233.846 137.249,241.09Z" style="fill:rgb(223,252,255);"/>
        </g>
        <g transform="matrix(1,0,0,1.60866,441.705,577.754)">
            <path d="M137.249,241.09L137.249,267.342C137.249,274.586 127.788,280.468 116.134,280.468L67.424,280.468C55.77,280.468 46.309,274.586 46.309,267.342L46.309,241.09C46.309,233.846 55.77,227.964 67.424,227.964L116.134,227.964C127.788,227.964 137.249,233.846 137.249,241.09Z" style="fill:rgb(223,252,255);"/>
        </g>
        <g transform="matrix(1,0,0,1.60866,72.4133,-316.688)">
            <path d="M137.249,241.09L137.249,267.342C137.249,274.586 127.788,280.468 116.134,280.468L67.424,280.468C55.77,280.468 46.309,274.586 46.309,267.342L46.309,241.09C46.309,233.846 55.77,227.964 67.424,227.964L116.134,227.964C127.788,227.964 137.249,233.846 137.249,241.09Z" style="fill:rgb(223,252,255);"/>
        </g>
        <g transform="matrix(1,0,0,1.60866,72.4133,577.754)">
            <path d="M137.249,241.09L137.249,267.342C137.249,274.586 127.788,280.468 116.134,280.468L67.424,280.468C55.77,280.468 46.309,274.586 46.309,267.342L46.309,241.09C46.309,233.846 55.77,227.964 67.424,227.964L116.134,227.964C127.788,227.964 137.249,233.846 137.249,241.09Z" style="fill:rgb(223,252,255);"/>
        </g>
        <g transform="matrix(1,0,0,1.60866,567.168,-316.688)">
            <path d="M137.249,241.09L137.249,267.342C137.249,274.586 127.788,280.468 116.134,280.468L67.424,280.468C55.77,280.468 46.309,274.586 46.309,267.342L46.309,241.09C46.309,233.846 55.77,227.964 67.424,227.964L116.134,227.964C127.788,227.964 137.249,233.846 137.249,241.09Z" style="fill:rgb(223,252,255);"/>
        </g>
        <g transform="matrix(1,0,0,1.60866,567.168,577.754)">
            <path d="M137.249,241.09L137.249,267.342C137.249,274.586 127.788,280.468 116.134,280.468L67.424,280.468C55.77,280.468 46.309,274.586 46.309,267.342L46.309,241.09C46.309,233.846 55.77,227.964 67.424,227.964L116.134,227.964C127.788,227.964 137.249,233.846 137.249,241.09Z" style="fill:rgb(223,252,255);"/>
        </g>
        <g transform="matrix(1,0,0,1.60866,197.877,-316.688)">
            <path d="M137.249,241.09L137.249,267.342C137.249,274.586 127.788,280.468 116.134,280.468L67.424,280.468C55.77,280.468 46.309,274.586 46.309,267.342L46.309,241.09C46.309,233.846 55.77,227.964 67.424,227.964L116.134,227.964C127.788,227.964 137.249,233.846 137.249,241.09Z" style="fill:rgb(223,252,255);"/>
        </g>
        <g transform="matrix(1,0,0,1.60866,197.877,577.754)">
            <path d="M137.249,241.09L137.249,267.342C137.249,274.586 127.788,280.468 116.134,280.468L67.424,280.468C55.77,280.468 46.309,274.586 46.309,267.342L46.309,241.09C46.309,233.846 55.77,227.964 67.424,227.964L116.134,227.964C127.788,227.964 137.249,233.846 137.249,241.09Z" style="fill:rgb(223,252,255);"/>
        </g>
        <g transform="matrix(1,0,0,1.60866,692.631,-316.688)">
            <path d="M137.249,241.09L137.249,267.342C137.249,274.586 127.788,280.468 116.134,280.468L67.424,280.468C55.77,280.468 46.309,274.586 46.309,267.342L46.309,241.09C46.309,233.846 55.77,227.964 67.424,227.964L116.134,227.964C127.788,227.964 137.249,233.846 137.249,241.09Z" style="fill:rgb(223,252,255);"/>
        </g>
        <g transform="matrix(1,0,0,1.60866,692.631,577.754)">
            <path d="M137.249,241.09L137.249,267.342C137.249,274.586 127.788,280.468 116.134,280.468L67.424,280.468C55.77,280.468 46.309,274.586 46.309,267.342L46.309,241.09C46.309,233.846 55.77,227.964 67.424,227.964L116.134,227.964C127.788,227.964 137.249,233.846 137.249,241.09Z" style="fill:rgb(223,252,255);"/>
        </g>
        <g transform="matrix(1,0,0,1.60866,323.877,-316.688)">
            <path d="M137.249,241.09L137.249,267.342C137.249,274.586 127.788,280.468 116.134,280.468L67.424,280.468C55.77,280.468 46.309,274.586 46.309,267.342L46.309,241.09C46.309,233.846 55.77,227.964 67.424,227.964L116.134,227.964C127.788,227.964 137.249,233.846 137.249,241.09Z" style="fill:rgb(223,252,255);"/>
        </g>
        <g transform="matrix(1,0,0,1.60866,323.877,577.754)">
            <path d="M137.249,241.09L137.249,267.342C137.249,274.586 127.788,280.468 116.134,280.468L67.424,280.468C55.77,280.468 46.309,274.586 46.309,267.342L46.309,241.09C46.309,233.846 55.77,227.964 67.424,227.964L116.134,227.964C127.788,227.964 137.249,233.846 137.249,241.09Z" style="fill:rgb(223,252,255);"/>
        </g>
        <g transform="matrix(1,0,0,1.60866,818.631,-316.688)">
            <path d="M137.249,241.09L137.249,267.342C137.249,274.586 127.788,280.468 116.134,280.468L67.424,280.468C55.77,280.468 46.309,274.586 46.309,267.342L46.309,241.09C46.309,233.846 55.77,227.964 67.424,227.964L116.134,227.964C127.788,227.964 137.249,233.846 137.249,241.09Z" style="fill:rgb(223,252,255);"/>
        </g>
        <g transform="matrix(1,0,0,1.60866,818.631,577.754)">
            <path d="M137.249,241.09L137.249,267.342C137.249,274.586 127.788,280.468 116.134,280.468L67.424,280.468C55.77,280.468 46.309,274.586 46.309,267.342L46.309,241.09C46.309,233.846 55.77,227.964 67.424,227.964L116.134,227.964C127.788,227.964 137.249,233.846 137.249,241.09Z" style="fill:rgb(223,252,255);"/>
        </g>
        <g transform="matrix(1,0,0,1.60866,935.231,-316.688)">
            <path d="M137.249,241.09L137.249,267.342C137.249,274.586 127.788,280.468 116.134,280.468L67.424,280.468C55.77,280.468 46.309,274.586 46.309,267.342L46.309,241.09C46.309,233.846 55.77,227.964 67.424,227.964L116.134,227.964C127.788,227.964 137.249,233.846 137.249,241.09Z" style="fill:rgb(223,252,255);"/>
        </g>
        <g transform="matrix(1,0,0,1.60866,935.231,577.754)">
            <path d="M137.249,241.09L137.249,267.342C137.249,274.586 127.788,280.468 116.134,280.468L67.424,280.468C55.77,280.468 46.309,274.586 46.309,267.342L46.309,241.09C46.309,233.846 55.77,227.964 67.424,227.964L116.134,227.964C127.788,227.964 137.249,233.846 137.249,241.09Z" style="fill:rgb(223,252,255);"/>
        </g>
    </g>
</svg>
